<svg id="Camada_1" data-name="Camada 1" xmlns="http://www.w3.org/2000/svg" viewBox="0 0 533.37 133.06"><defs><style>.cls-1{fill:#23262f;}.cls-2{fill:#adfc92;}.cls-3{fill:none;}</style></defs><title>nautillus-logo</title><path class="cls-1" d="M165.93,59.08l-4.32-1.32V52.05l13.33-1.61h.22l1.9,1.54v2.71L177,56.37a21.85,21.85,0,0,1,6.52-4.1,20.91,20.91,0,0,1,8.27-1.69,13,13,0,0,1,6.92,1.58,8.86,8.86,0,0,1,3.66,5,30.81,30.81,0,0,1,1.14,9.37V86.62l4.1.58v4.91H187.68V87.28l3.59-.66v-20a23.89,23.89,0,0,0-.48-5.45,4.73,4.73,0,0,0-1.64-2.82,5.54,5.54,0,0,0-3.37-.88q-3.37,0-7.62,3.15v26l4,.66v4.83H161.9V87.28l4-.66Z" transform="translate(-1.05 -0.76)"/><path class="cls-1" d="M218,70.5q6.56-3.44,17.25-3.51V65.52a12.07,12.07,0,0,0-.59-4.17A4.23,4.23,0,0,0,232.5,59a10.54,10.54,0,0,0-4.54-.77,22.46,22.46,0,0,0-6.41.85,46.25,46.25,0,0,0-5.89,2.23l-2.49-5.27a22.84,22.84,0,0,1,3.8-2.31,32.28,32.28,0,0,1,6.34-2.34,29.7,29.7,0,0,1,7.72-1,22.36,22.36,0,0,1,9.2,1.54A9.25,9.25,0,0,1,245,56.74a22.17,22.17,0,0,1,1.42,8.78V87.28h3.81v4.61c-1.12.24-2.68.49-4.68.73a42.46,42.46,0,0,1-5.13.37c-1.86,0-3.09-.27-3.7-.81s-.92-1.61-.92-3.22V87.28a17.16,17.16,0,0,1-4.9,3.91,14.28,14.28,0,0,1-7.11,1.72,13.13,13.13,0,0,1-6.26-1.5,11.1,11.1,0,0,1-4.46-4.32,13,13,0,0,1-1.65-6.7Q211.41,74,218,70.5Zm14.47,14.91a11.19,11.19,0,0,0,2.78-1.87V71.9q-5.72,0-8.46,2A6.3,6.3,0,0,0,224,79.22a8,8,0,0,0,1.47,5.13,4.88,4.88,0,0,0,4,1.83A7,7,0,0,0,232.43,85.41Z" transform="translate(-1.05 -0.76)"/><path class="cls-1" d="M283.4,91.71a4.46,4.46,0,0,1-1.18-3.34V86.76a16.68,16.68,0,0,1-12.37,6.15q-7.19,0-10.22-3.55t-3-11.9V57.1l-3.44-1V51.46l13.77-1H267l1.61,1V77.75q0,4.77,1.18,6.63T274,86.25a9.36,9.36,0,0,0,6.88-2.78V57.1L276.29,56V51.46l14.5-1H291l1.76,1V87.06h3.88v4.68c-1.66.34-3.18.61-4.58.81a36.27,36.27,0,0,1-4.86.29A5.37,5.37,0,0,1,283.4,91.71Z" transform="translate(-1.05 -0.76)"/><path class="cls-1" d="M306.57,90.53c-1.53-1.49-2.3-3.79-2.3-6.92V57.54H299.8V53.29l1.47-.58a23.48,23.48,0,0,0,3.07-1.25,9.63,9.63,0,0,0,2.34-3.66,64.81,64.81,0,0,0,2.42-7.39h6.81l.44,11h10.47v6.15H316.5V77a47.83,47.83,0,0,0,.22,5.64,3.07,3.07,0,0,0,.84,2.08,4,4,0,0,0,2.31.48A18.15,18.15,0,0,0,326.38,84l1.54,4.61a17.92,17.92,0,0,1-6.08,2.93,27.34,27.34,0,0,1-8.13,1.25Q308.88,92.77,306.57,90.53Z" transform="translate(-1.05 -0.76)"/><path class="cls-1" d="M335.68,59.08l-4.9-1.39V52.2l14.64-1.76h.15L347.84,52V86.62l4.39.66v4.83H331.14V87.28l4.54-.66Zm-.14-15.67a5.73,5.73,0,0,1-1.76-4.32A7,7,0,0,1,335.72,34,8.18,8.18,0,0,1,346,33.74a5.73,5.73,0,0,1,1.76,4.32,6.8,6.8,0,0,1-2,5.09,7.58,7.58,0,0,1-5.57,1.94h-.07A6.39,6.39,0,0,1,335.54,43.41Z" transform="translate(-1.05 -0.76)"/><path class="cls-1" d="M361.09,39.23,356,38.28V33.81l14.65-1.75h.22L373,33.59v53l4.76.66v4.83H356.41V87.28l4.68-.66Z" transform="translate(-1.05 -0.76)"/><path class="cls-1" d="M386.29,39.23l-5.13-.95V33.81l14.65-1.75H396l2.12,1.53v53l4.76.66v4.83H381.6V87.28l4.69-.66Z" transform="translate(-1.05 -0.76)"/><path class="cls-1" d="M436.89,91.71a4.45,4.45,0,0,1-1.17-3.34V86.76a16.68,16.68,0,0,1-12.38,6.15q-7.17,0-10.21-3.55t-3-11.9V57.1l-3.44-1V51.46l13.76-1h.08l1.61,1V77.75q0,4.77,1.17,6.63t4.17,1.87a9.38,9.38,0,0,0,6.89-2.78V57.1L429.79,56V51.46l14.5-1h.22l1.75,1V87.06h3.89v4.68c-1.66.34-3.19.61-4.58.81a36.43,36.43,0,0,1-4.87.29A5.37,5.37,0,0,1,436.89,91.71Z" transform="translate(-1.05 -0.76)"/><path class="cls-1" d="M464,86a4.57,4.57,0,0,0,2.38,1.47,11.46,11.46,0,0,0,3.77.65,7.08,7.08,0,0,0,4.58-1.28,4.1,4.1,0,0,0,1.57-3.33,4.26,4.26,0,0,0-2.05-3.62,41.25,41.25,0,0,0-6.74-3.48l-2.78-1.25A18.3,18.3,0,0,1,457.58,70a12.14,12.14,0,0,1-2.38-7.73,9.9,9.9,0,0,1,2-6,13.08,13.08,0,0,1,5.71-4.21,22.9,22.9,0,0,1,8.79-1.54,36.73,36.73,0,0,1,6.07.44c1.71.29,3.45.66,5.2,1.1a15.34,15.34,0,0,0,2.64.59v10h-6.52L477.17,57a3.35,3.35,0,0,0-1.76-1.21,8.46,8.46,0,0,0-3.15-.55,7.13,7.13,0,0,0-4.39,1.21,3.84,3.84,0,0,0-1.61,3.26,4.34,4.34,0,0,0,1.83,3.69A33.65,33.65,0,0,0,474,66.55l1.53.66a35.28,35.28,0,0,1,9.31,5.38,9.94,9.94,0,0,1,3.36,8,10.93,10.93,0,0,1-4.32,8.9q-4.32,3.47-12.74,3.47a33.72,33.72,0,0,1-6.88-.62c-2-.41-4.2-1-6.59-1.65L455.2,90V80.24h7Z" transform="translate(-1.05 -0.76)"/><path class="cls-2" d="M97.22,74.4a8.2,8.2,0,0,0-1.46,4.49,8.39,8.39,0,0,0,8.14,8.63h0a8.4,8.4,0,0,0,7.44-12.71,7.54,7.54,0,0,1-7,4.73h-.23A7.54,7.54,0,0,1,97.22,74.4Z" transform="translate(-1.05 -0.76)"/><path class="cls-2" d="M132.17,85.34a26.76,26.76,0,0,0,6.43-16.72c0-.24,0-.47,0-.7a27.05,27.05,0,0,0-26.23-27.1h-.8A27,27,0,0,0,90,84.12a22.13,22.13,0,0,1-.52-5.41A21.75,21.75,0,1,1,133,80,21.27,21.27,0,0,1,132.17,85.34Z" transform="translate(-1.05 -0.76)"/><path class="cls-2" d="M127.66,97a33.09,33.09,0,0,1-16,4.12l-1,0-.55,0a33.26,33.26,0,1,1,19.18-61.43,45.69,45.69,0,0,0-25.79-16.77h0l-.92-.2-.3-.06-.77-.16-.45-.08-.69-.12-.54-.08-.62-.09L98.53,22,98,21.91l-.7-.07-.51,0c-.27,0-.54,0-.81-.06l-.41,0-1.23-.05h0l-1.1,0H91.93A45.72,45.72,0,0,0,47.47,63.56a.2.2,0,0,1,0,.07l-.06,1c0,.07,0,.14,0,.21,0,.34,0,.67,0,1V66c0,.34,0,.68,0,1v.28c0,.3,0,.59,0,.89s0,.32,0,.48,0,.33,0,.5a45.73,45.73,0,0,0,7.77,23.64l.47.69.07.11a45.61,45.61,0,0,0,36,19.33h0A45.37,45.37,0,0,0,124.3,100.5,48.33,48.33,0,0,0,127.66,97Z" transform="translate(-1.05 -0.76)"/><path class="cls-2" d="M106.4,74.19a3,3,0,0,0,.93-2.08A3,3,0,0,0,104.44,69h-.09a3,3,0,1,0,2.05,5.15Z" transform="translate(-1.05 -0.76)"/><path class="cls-2" d="M114.19,89.78a14.49,14.49,0,0,1-8.76,3.93,15.3,15.3,0,0,0,5.38,1.13h0a15.51,15.51,0,0,0,.9-31h-.46a15.26,15.26,0,0,0-5,.83,14.63,14.63,0,0,1,7.92,25.12Z" transform="translate(-1.05 -0.76)"/><rect class="cls-3" width="533.37" height="133.06"/></svg>